<mxfile host="app.diagrams.net" modified="2022-01-14T01:30:45.729Z" agent="5.0 (Macintosh; Intel Mac OS X 10_15_7) AppleWebKit/537.36 (KHTML, like Gecko) Chrome/97.0.4692.71 Safari/537.36" etag="jpdEg44aMH4MoJbL5yBC" version="16.2.6" type="github" pages="2">
  <diagram id="_k4SFtjNPuJcZfNxcP2K" name="Use Case Diagram">
    <mxGraphModel dx="946" dy="614" grid="1" gridSize="10" guides="1" tooltips="1" connect="1" arrows="1" fold="1" page="1" pageScale="1" pageWidth="850" pageHeight="1100" math="0" shadow="0">
      <root>
        <mxCell id="0" />
        <mxCell id="1" parent="0" />
        <mxCell id="45MKgMRKXFpGtMMUWDXZ-6" value="Bank ATM" style="text;html=1;strokeColor=none;fillColor=none;align=center;verticalAlign=middle;whiteSpace=wrap;rounded=0;" parent="1" vertex="1">
          <mxGeometry x="285" y="90" width="60" height="30" as="geometry" />
        </mxCell>
        <mxCell id="45MKgMRKXFpGtMMUWDXZ-7" value="Operator" style="shape=umlActor;verticalLabelPosition=bottom;verticalAlign=top;html=1;outlineConnect=0;" parent="1" vertex="1">
          <mxGeometry x="100" y="250" width="30" height="60" as="geometry" />
        </mxCell>
        <mxCell id="45MKgMRKXFpGtMMUWDXZ-8" value="Technician" style="shape=umlActor;verticalLabelPosition=bottom;verticalAlign=top;html=1;outlineConnect=0;" parent="1" vertex="1">
          <mxGeometry x="100" y="560" width="30" height="60" as="geometry" />
        </mxCell>
        <mxCell id="45MKgMRKXFpGtMMUWDXZ-10" value="System&lt;br&gt;Startup" style="ellipse;whiteSpace=wrap;html=1;" parent="1" vertex="1">
          <mxGeometry x="345" y="120" width="120" height="80" as="geometry" />
        </mxCell>
        <mxCell id="45MKgMRKXFpGtMMUWDXZ-11" value="Maintenance" style="ellipse;whiteSpace=wrap;html=1;" parent="1" vertex="1">
          <mxGeometry x="345" y="340" width="120" height="80" as="geometry" />
        </mxCell>
        <mxCell id="45MKgMRKXFpGtMMUWDXZ-12" value="Session" style="ellipse;whiteSpace=wrap;html=1;" parent="1" vertex="1">
          <mxGeometry x="345" y="450" width="120" height="80" as="geometry" />
        </mxCell>
        <mxCell id="45MKgMRKXFpGtMMUWDXZ-13" value="System&lt;br&gt;Shutdown" style="ellipse;whiteSpace=wrap;html=1;" parent="1" vertex="1">
          <mxGeometry x="345" y="230" width="120" height="80" as="geometry" />
        </mxCell>
        <mxCell id="45MKgMRKXFpGtMMUWDXZ-14" value="Tansaction" style="ellipse;whiteSpace=wrap;html=1;" parent="1" vertex="1">
          <mxGeometry x="345" y="560" width="120" height="80" as="geometry" />
        </mxCell>
        <mxCell id="45MKgMRKXFpGtMMUWDXZ-17" value="" style="endArrow=none;html=1;rounded=0;" parent="1" edge="1">
          <mxGeometry width="50" height="50" relative="1" as="geometry">
            <mxPoint x="140" y="280" as="sourcePoint" />
            <mxPoint x="345" y="160" as="targetPoint" />
          </mxGeometry>
        </mxCell>
        <mxCell id="45MKgMRKXFpGtMMUWDXZ-18" value="" style="endArrow=none;html=1;rounded=0;entryX=0;entryY=0.5;entryDx=0;entryDy=0;" parent="1" target="45MKgMRKXFpGtMMUWDXZ-13" edge="1">
          <mxGeometry width="50" height="50" relative="1" as="geometry">
            <mxPoint x="140" y="280" as="sourcePoint" />
            <mxPoint x="355" y="170" as="targetPoint" />
          </mxGeometry>
        </mxCell>
        <mxCell id="45MKgMRKXFpGtMMUWDXZ-19" value="" style="endArrow=none;html=1;rounded=0;entryX=0;entryY=0.5;entryDx=0;entryDy=0;" parent="1" target="45MKgMRKXFpGtMMUWDXZ-11" edge="1">
          <mxGeometry width="50" height="50" relative="1" as="geometry">
            <mxPoint x="140" y="280" as="sourcePoint" />
            <mxPoint x="365" y="180" as="targetPoint" />
          </mxGeometry>
        </mxCell>
        <mxCell id="45MKgMRKXFpGtMMUWDXZ-23" value="" style="whiteSpace=wrap;html=1;aspect=fixed;" parent="1" vertex="1">
          <mxGeometry x="715" y="410" width="90" height="90" as="geometry" />
        </mxCell>
        <mxCell id="45MKgMRKXFpGtMMUWDXZ-24" value="Bank" style="triangle;whiteSpace=wrap;html=1;direction=north;" parent="1" vertex="1">
          <mxGeometry x="705" y="340" width="110" height="80" as="geometry" />
        </mxCell>
        <mxCell id="45MKgMRKXFpGtMMUWDXZ-25" value="" style="rounded=0;whiteSpace=wrap;html=1;" parent="1" vertex="1">
          <mxGeometry x="710" y="470" width="100" height="10" as="geometry" />
        </mxCell>
        <mxCell id="45MKgMRKXFpGtMMUWDXZ-26" value="" style="rounded=0;whiteSpace=wrap;html=1;" parent="1" vertex="1">
          <mxGeometry x="705" y="480" width="110" height="10" as="geometry" />
        </mxCell>
        <mxCell id="45MKgMRKXFpGtMMUWDXZ-27" value="" style="rounded=0;whiteSpace=wrap;html=1;" parent="1" vertex="1">
          <mxGeometry x="697.5" y="490" width="125" height="10" as="geometry" />
        </mxCell>
        <mxCell id="45MKgMRKXFpGtMMUWDXZ-28" value="" style="rounded=0;whiteSpace=wrap;html=1;rotation=90;" parent="1" vertex="1">
          <mxGeometry x="705" y="440" width="50" height="10" as="geometry" />
        </mxCell>
        <mxCell id="45MKgMRKXFpGtMMUWDXZ-32" value="" style="rounded=0;whiteSpace=wrap;html=1;rotation=90;" parent="1" vertex="1">
          <mxGeometry x="745" y="440" width="50" height="10" as="geometry" />
        </mxCell>
        <mxCell id="45MKgMRKXFpGtMMUWDXZ-33" value="" style="rounded=0;whiteSpace=wrap;html=1;rotation=90;" parent="1" vertex="1">
          <mxGeometry x="765" y="440" width="50" height="10" as="geometry" />
        </mxCell>
        <mxCell id="45MKgMRKXFpGtMMUWDXZ-36" value="" style="rounded=0;whiteSpace=wrap;html=1;rotation=90;" parent="1" vertex="1">
          <mxGeometry x="715" y="440" width="50" height="10" as="geometry" />
        </mxCell>
        <mxCell id="45MKgMRKXFpGtMMUWDXZ-39" value="" style="endArrow=none;html=1;rounded=0;entryX=0;entryY=0.5;entryDx=0;entryDy=0;" parent="1" edge="1" target="45MKgMRKXFpGtMMUWDXZ-12">
          <mxGeometry width="50" height="50" relative="1" as="geometry">
            <mxPoint x="140" y="600" as="sourcePoint" />
            <mxPoint x="345" y="600" as="targetPoint" />
          </mxGeometry>
        </mxCell>
        <mxCell id="45MKgMRKXFpGtMMUWDXZ-40" value="" style="endArrow=none;html=1;rounded=0;entryX=0;entryY=0.5;entryDx=0;entryDy=0;" parent="1" edge="1" target="45MKgMRKXFpGtMMUWDXZ-14">
          <mxGeometry width="50" height="50" relative="1" as="geometry">
            <mxPoint x="140" y="600" as="sourcePoint" />
            <mxPoint x="345" y="700" as="targetPoint" />
          </mxGeometry>
        </mxCell>
        <mxCell id="45MKgMRKXFpGtMMUWDXZ-54" value="" style="endArrow=none;html=1;rounded=0;exitX=0.983;exitY=0.413;exitDx=0;exitDy=0;exitPerimeter=0;" parent="1" source="45MKgMRKXFpGtMMUWDXZ-14" edge="1">
          <mxGeometry width="50" height="50" relative="1" as="geometry">
            <mxPoint x="400" y="530" as="sourcePoint" />
            <mxPoint x="700" y="440" as="targetPoint" />
          </mxGeometry>
        </mxCell>
        <mxCell id="45MKgMRKXFpGtMMUWDXZ-57" value="Bank" style="text;html=1;align=center;verticalAlign=middle;resizable=0;points=[];autosize=1;strokeColor=none;fillColor=none;" parent="1" vertex="1">
          <mxGeometry x="740" y="500" width="40" height="20" as="geometry" />
        </mxCell>
        <mxCell id="Dvb4oOkXm0ofPI8fJMlN-1" style="edgeStyle=orthogonalEdgeStyle;rounded=0;orthogonalLoop=1;jettySize=auto;html=1;exitX=1;exitY=0.5;exitDx=0;exitDy=0;" edge="1" parent="1">
          <mxGeometry relative="1" as="geometry">
            <mxPoint x="405" y="672.5" as="sourcePoint" />
            <mxPoint x="405" y="672.5" as="targetPoint" />
          </mxGeometry>
        </mxCell>
        <mxCell id="Dvb4oOkXm0ofPI8fJMlN-3" value="Invalid&lt;br&gt;PIN" style="ellipse;whiteSpace=wrap;html=1;" vertex="1" parent="1">
          <mxGeometry x="560" y="300" width="120" height="80" as="geometry" />
        </mxCell>
        <mxCell id="Dvb4oOkXm0ofPI8fJMlN-4" value="Inquiry" style="ellipse;whiteSpace=wrap;html=1;" vertex="1" parent="1">
          <mxGeometry x="560" y="720" width="120" height="80" as="geometry" />
        </mxCell>
        <mxCell id="Dvb4oOkXm0ofPI8fJMlN-5" value="Transfer" style="ellipse;whiteSpace=wrap;html=1;" vertex="1" parent="1">
          <mxGeometry x="400" y="720" width="120" height="80" as="geometry" />
        </mxCell>
        <mxCell id="Dvb4oOkXm0ofPI8fJMlN-6" value="Deposit" style="ellipse;whiteSpace=wrap;html=1;" vertex="1" parent="1">
          <mxGeometry x="240" y="720" width="120" height="80" as="geometry" />
        </mxCell>
        <mxCell id="Dvb4oOkXm0ofPI8fJMlN-7" value="Withdraw" style="ellipse;whiteSpace=wrap;html=1;" vertex="1" parent="1">
          <mxGeometry x="80" y="720" width="120" height="80" as="geometry" />
        </mxCell>
        <mxCell id="Dvb4oOkXm0ofPI8fJMlN-10" value="" style="endArrow=classic;html=1;rounded=0;entryX=0.5;entryY=1;entryDx=0;entryDy=0;exitX=0.5;exitY=0;exitDx=0;exitDy=0;" edge="1" parent="1" source="Dvb4oOkXm0ofPI8fJMlN-7" target="45MKgMRKXFpGtMMUWDXZ-14">
          <mxGeometry width="50" height="50" relative="1" as="geometry">
            <mxPoint x="450" y="680" as="sourcePoint" />
            <mxPoint x="500" y="630" as="targetPoint" />
          </mxGeometry>
        </mxCell>
        <mxCell id="Dvb4oOkXm0ofPI8fJMlN-12" value="" style="endArrow=classic;html=1;rounded=0;entryX=0.5;entryY=1;entryDx=0;entryDy=0;exitX=0.5;exitY=0;exitDx=0;exitDy=0;" edge="1" parent="1" source="Dvb4oOkXm0ofPI8fJMlN-6" target="45MKgMRKXFpGtMMUWDXZ-14">
          <mxGeometry width="50" height="50" relative="1" as="geometry">
            <mxPoint x="450" y="680" as="sourcePoint" />
            <mxPoint x="500" y="630" as="targetPoint" />
          </mxGeometry>
        </mxCell>
        <mxCell id="Dvb4oOkXm0ofPI8fJMlN-13" value="" style="endArrow=classic;html=1;rounded=0;entryX=0.575;entryY=1.013;entryDx=0;entryDy=0;entryPerimeter=0;exitX=0.5;exitY=0;exitDx=0;exitDy=0;" edge="1" parent="1" source="Dvb4oOkXm0ofPI8fJMlN-4" target="45MKgMRKXFpGtMMUWDXZ-14">
          <mxGeometry width="50" height="50" relative="1" as="geometry">
            <mxPoint x="450" y="680" as="sourcePoint" />
            <mxPoint x="500" y="630" as="targetPoint" />
          </mxGeometry>
        </mxCell>
        <mxCell id="Dvb4oOkXm0ofPI8fJMlN-14" value="" style="endArrow=classic;html=1;rounded=0;entryX=0.5;entryY=1;entryDx=0;entryDy=0;exitX=0.5;exitY=0;exitDx=0;exitDy=0;" edge="1" parent="1" source="Dvb4oOkXm0ofPI8fJMlN-5" target="45MKgMRKXFpGtMMUWDXZ-14">
          <mxGeometry width="50" height="50" relative="1" as="geometry">
            <mxPoint x="450" y="710" as="sourcePoint" />
            <mxPoint x="500" y="630" as="targetPoint" />
          </mxGeometry>
        </mxCell>
        <mxCell id="Dvb4oOkXm0ofPI8fJMlN-15" value="" style="endArrow=none;dashed=1;html=1;dashPattern=1 3;strokeWidth=2;rounded=0;exitX=0.992;exitY=0.375;exitDx=0;exitDy=0;exitPerimeter=0;" edge="1" parent="1" source="45MKgMRKXFpGtMMUWDXZ-14" target="Dvb4oOkXm0ofPI8fJMlN-3">
          <mxGeometry width="50" height="50" relative="1" as="geometry">
            <mxPoint x="470" y="590" as="sourcePoint" />
            <mxPoint x="500" y="550" as="targetPoint" />
          </mxGeometry>
        </mxCell>
      </root>
    </mxGraphModel>
  </diagram>
  <diagram id="KxTxRun4sh863hU8KU6i" name="Class Diagram">
    <mxGraphModel dx="946" dy="614" grid="1" gridSize="10" guides="1" tooltips="1" connect="1" arrows="1" fold="1" page="1" pageScale="1" pageWidth="850" pageHeight="1100" math="0" shadow="0">
      <root>
        <mxCell id="xuX5k-lq0-51uePfPYsa-0" />
        <mxCell id="xuX5k-lq0-51uePfPYsa-1" parent="xuX5k-lq0-51uePfPYsa-0" />
        <mxCell id="ivWQdCyOf3Oc2Pl7hZdx-12" value="Bank" style="swimlane;fontStyle=1;align=center;verticalAlign=top;childLayout=stackLayout;horizontal=1;startSize=26;horizontalStack=0;resizeParent=1;resizeParentMax=0;resizeLast=0;collapsible=1;marginBottom=0;" vertex="1" parent="xuX5k-lq0-51uePfPYsa-1">
          <mxGeometry x="80" y="80" width="160" height="110" as="geometry" />
        </mxCell>
        <mxCell id="ivWQdCyOf3Oc2Pl7hZdx-13" value="code&#xa;address&#xa;" style="text;strokeColor=none;fillColor=none;align=left;verticalAlign=top;spacingLeft=4;spacingRight=4;overflow=hidden;rotatable=0;points=[[0,0.5],[1,0.5]];portConstraint=eastwest;" vertex="1" parent="ivWQdCyOf3Oc2Pl7hZdx-12">
          <mxGeometry y="26" width="160" height="34" as="geometry" />
        </mxCell>
        <mxCell id="ivWQdCyOf3Oc2Pl7hZdx-14" value="" style="line;strokeWidth=1;fillColor=none;align=left;verticalAlign=middle;spacingTop=-1;spacingLeft=3;spacingRight=3;rotatable=0;labelPosition=right;points=[];portConstraint=eastwest;" vertex="1" parent="ivWQdCyOf3Oc2Pl7hZdx-12">
          <mxGeometry y="60" width="160" height="8" as="geometry" />
        </mxCell>
        <mxCell id="ivWQdCyOf3Oc2Pl7hZdx-15" value="Manages()&#xa;maintains()" style="text;strokeColor=none;fillColor=none;align=left;verticalAlign=top;spacingLeft=4;spacingRight=4;overflow=hidden;rotatable=0;points=[[0,0.5],[1,0.5]];portConstraint=eastwest;" vertex="1" parent="ivWQdCyOf3Oc2Pl7hZdx-12">
          <mxGeometry y="68" width="160" height="42" as="geometry" />
        </mxCell>
        <mxCell id="ivWQdCyOf3Oc2Pl7hZdx-23" value="ATMInfo" style="swimlane;fontStyle=1;align=center;verticalAlign=top;childLayout=stackLayout;horizontal=1;startSize=26;horizontalStack=0;resizeParent=1;resizeParentMax=0;resizeLast=0;collapsible=1;marginBottom=0;" vertex="1" parent="xuX5k-lq0-51uePfPYsa-1">
          <mxGeometry x="600" y="80" width="160" height="110" as="geometry" />
        </mxCell>
        <mxCell id="ivWQdCyOf3Oc2Pl7hZdx-24" value="location&#xa;managedBy" style="text;strokeColor=none;fillColor=none;align=left;verticalAlign=top;spacingLeft=4;spacingRight=4;overflow=hidden;rotatable=0;points=[[0,0.5],[1,0.5]];portConstraint=eastwest;" vertex="1" parent="ivWQdCyOf3Oc2Pl7hZdx-23">
          <mxGeometry y="26" width="160" height="34" as="geometry" />
        </mxCell>
        <mxCell id="ivWQdCyOf3Oc2Pl7hZdx-25" value="" style="line;strokeWidth=1;fillColor=none;align=left;verticalAlign=middle;spacingTop=-1;spacingLeft=3;spacingRight=3;rotatable=0;labelPosition=right;points=[];portConstraint=eastwest;" vertex="1" parent="ivWQdCyOf3Oc2Pl7hZdx-23">
          <mxGeometry y="60" width="160" height="8" as="geometry" />
        </mxCell>
        <mxCell id="ivWQdCyOf3Oc2Pl7hZdx-26" value="identifies()&#xa;transactions()" style="text;strokeColor=none;fillColor=none;align=left;verticalAlign=top;spacingLeft=4;spacingRight=4;overflow=hidden;rotatable=0;points=[[0,0.5],[1,0.5]];portConstraint=eastwest;" vertex="1" parent="ivWQdCyOf3Oc2Pl7hZdx-23">
          <mxGeometry y="68" width="160" height="42" as="geometry" />
        </mxCell>
        <mxCell id="ivWQdCyOf3Oc2Pl7hZdx-27" value="" style="endArrow=none;html=1;rounded=0;exitX=1;exitY=0.25;exitDx=0;exitDy=0;" edge="1" parent="xuX5k-lq0-51uePfPYsa-1" source="ivWQdCyOf3Oc2Pl7hZdx-12">
          <mxGeometry width="50" height="50" relative="1" as="geometry">
            <mxPoint x="340" y="370" as="sourcePoint" />
            <mxPoint x="600" y="108" as="targetPoint" />
          </mxGeometry>
        </mxCell>
        <mxCell id="ivWQdCyOf3Oc2Pl7hZdx-28" value="Customer" style="swimlane;fontStyle=1;align=center;verticalAlign=top;childLayout=stackLayout;horizontal=1;startSize=26;horizontalStack=0;resizeParent=1;resizeParentMax=0;resizeLast=0;collapsible=1;marginBottom=0;" vertex="1" parent="xuX5k-lq0-51uePfPYsa-1">
          <mxGeometry x="330" y="160" width="160" height="120" as="geometry" />
        </mxCell>
        <mxCell id="ivWQdCyOf3Oc2Pl7hZdx-29" value="name&#xa;address&#xa;dob" style="text;strokeColor=none;fillColor=none;align=left;verticalAlign=top;spacingLeft=4;spacingRight=4;overflow=hidden;rotatable=0;points=[[0,0.5],[1,0.5]];portConstraint=eastwest;" vertex="1" parent="ivWQdCyOf3Oc2Pl7hZdx-28">
          <mxGeometry y="26" width="160" height="54" as="geometry" />
        </mxCell>
        <mxCell id="ivWQdCyOf3Oc2Pl7hZdx-30" value="" style="line;strokeWidth=1;fillColor=none;align=left;verticalAlign=middle;spacingTop=-1;spacingLeft=3;spacingRight=3;rotatable=0;labelPosition=right;points=[];portConstraint=eastwest;" vertex="1" parent="ivWQdCyOf3Oc2Pl7hZdx-28">
          <mxGeometry y="80" width="160" height="8" as="geometry" />
        </mxCell>
        <mxCell id="ivWQdCyOf3Oc2Pl7hZdx-31" value="owns()" style="text;strokeColor=none;fillColor=none;align=left;verticalAlign=top;spacingLeft=4;spacingRight=4;overflow=hidden;rotatable=0;points=[[0,0.5],[1,0.5]];portConstraint=eastwest;" vertex="1" parent="ivWQdCyOf3Oc2Pl7hZdx-28">
          <mxGeometry y="88" width="160" height="32" as="geometry" />
        </mxCell>
        <mxCell id="ivWQdCyOf3Oc2Pl7hZdx-32" value="" style="endArrow=none;html=1;rounded=0;exitX=1;exitY=0.5;exitDx=0;exitDy=0;entryX=0;entryY=0.083;entryDx=0;entryDy=0;entryPerimeter=0;" edge="1" parent="xuX5k-lq0-51uePfPYsa-1" source="ivWQdCyOf3Oc2Pl7hZdx-15" target="ivWQdCyOf3Oc2Pl7hZdx-28">
          <mxGeometry width="50" height="50" relative="1" as="geometry">
            <mxPoint x="250" y="117.5" as="sourcePoint" />
            <mxPoint x="610" y="118" as="targetPoint" />
          </mxGeometry>
        </mxCell>
        <mxCell id="ivWQdCyOf3Oc2Pl7hZdx-33" value="DebitCard" style="swimlane;fontStyle=1;align=center;verticalAlign=top;childLayout=stackLayout;horizontal=1;startSize=26;horizontalStack=0;resizeParent=1;resizeParentMax=0;resizeLast=0;collapsible=1;marginBottom=0;" vertex="1" parent="xuX5k-lq0-51uePfPYsa-1">
          <mxGeometry x="80" y="230" width="160" height="104" as="geometry" />
        </mxCell>
        <mxCell id="ivWQdCyOf3Oc2Pl7hZdx-34" value="cardNo&#xa;ownedBy" style="text;strokeColor=none;fillColor=none;align=left;verticalAlign=top;spacingLeft=4;spacingRight=4;overflow=hidden;rotatable=0;points=[[0,0.5],[1,0.5]];portConstraint=eastwest;" vertex="1" parent="ivWQdCyOf3Oc2Pl7hZdx-33">
          <mxGeometry y="26" width="160" height="44" as="geometry" />
        </mxCell>
        <mxCell id="ivWQdCyOf3Oc2Pl7hZdx-35" value="" style="line;strokeWidth=1;fillColor=none;align=left;verticalAlign=middle;spacingTop=-1;spacingLeft=3;spacingRight=3;rotatable=0;labelPosition=right;points=[];portConstraint=eastwest;" vertex="1" parent="ivWQdCyOf3Oc2Pl7hZdx-33">
          <mxGeometry y="70" width="160" height="2" as="geometry" />
        </mxCell>
        <mxCell id="ivWQdCyOf3Oc2Pl7hZdx-36" value="access()" style="text;strokeColor=none;fillColor=none;align=left;verticalAlign=top;spacingLeft=4;spacingRight=4;overflow=hidden;rotatable=0;points=[[0,0.5],[1,0.5]];portConstraint=eastwest;" vertex="1" parent="ivWQdCyOf3Oc2Pl7hZdx-33">
          <mxGeometry y="72" width="160" height="32" as="geometry" />
        </mxCell>
        <mxCell id="ivWQdCyOf3Oc2Pl7hZdx-37" value="" style="endArrow=none;html=1;rounded=0;entryX=-0.006;entryY=1.037;entryDx=0;entryDy=0;entryPerimeter=0;" edge="1" parent="xuX5k-lq0-51uePfPYsa-1" target="ivWQdCyOf3Oc2Pl7hZdx-29">
          <mxGeometry width="50" height="50" relative="1" as="geometry">
            <mxPoint x="240" y="242" as="sourcePoint" />
            <mxPoint x="250" y="200" as="targetPoint" />
          </mxGeometry>
        </mxCell>
        <mxCell id="ivWQdCyOf3Oc2Pl7hZdx-39" value="Account" style="swimlane;fontStyle=1;align=center;verticalAlign=top;childLayout=stackLayout;horizontal=1;startSize=26;horizontalStack=0;resizeParent=1;resizeParentMax=0;resizeLast=0;collapsible=1;marginBottom=0;" vertex="1" parent="xuX5k-lq0-51uePfPYsa-1">
          <mxGeometry x="330" y="330" width="160" height="110" as="geometry" />
        </mxCell>
        <mxCell id="ivWQdCyOf3Oc2Pl7hZdx-40" value="type&#xa;owner" style="text;strokeColor=none;fillColor=none;align=left;verticalAlign=top;spacingLeft=4;spacingRight=4;overflow=hidden;rotatable=0;points=[[0,0.5],[1,0.5]];portConstraint=eastwest;" vertex="1" parent="ivWQdCyOf3Oc2Pl7hZdx-39">
          <mxGeometry y="26" width="160" height="54" as="geometry" />
        </mxCell>
        <mxCell id="ivWQdCyOf3Oc2Pl7hZdx-41" value="" style="line;strokeWidth=1;fillColor=none;align=left;verticalAlign=middle;spacingTop=-1;spacingLeft=3;spacingRight=3;rotatable=0;labelPosition=right;points=[];portConstraint=eastwest;" vertex="1" parent="ivWQdCyOf3Oc2Pl7hZdx-39">
          <mxGeometry y="80" width="160" height="30" as="geometry" />
        </mxCell>
        <mxCell id="ivWQdCyOf3Oc2Pl7hZdx-43" value="ATMTransaction" style="swimlane;fontStyle=1;align=center;verticalAlign=top;childLayout=stackLayout;horizontal=1;startSize=26;horizontalStack=0;resizeParent=1;resizeParentMax=0;resizeLast=0;collapsible=1;marginBottom=0;" vertex="1" parent="xuX5k-lq0-51uePfPYsa-1">
          <mxGeometry x="600" y="280" width="160" height="120" as="geometry" />
        </mxCell>
        <mxCell id="ivWQdCyOf3Oc2Pl7hZdx-44" value="transactionID&#xa;date&#xa;type" style="text;strokeColor=none;fillColor=none;align=left;verticalAlign=top;spacingLeft=4;spacingRight=4;overflow=hidden;rotatable=0;points=[[0,0.5],[1,0.5]];portConstraint=eastwest;" vertex="1" parent="ivWQdCyOf3Oc2Pl7hZdx-43">
          <mxGeometry y="26" width="160" height="54" as="geometry" />
        </mxCell>
        <mxCell id="ivWQdCyOf3Oc2Pl7hZdx-45" value="" style="line;strokeWidth=1;fillColor=none;align=left;verticalAlign=middle;spacingTop=-1;spacingLeft=3;spacingRight=3;rotatable=0;labelPosition=right;points=[];portConstraint=eastwest;" vertex="1" parent="ivWQdCyOf3Oc2Pl7hZdx-43">
          <mxGeometry y="80" width="160" height="8" as="geometry" />
        </mxCell>
        <mxCell id="ivWQdCyOf3Oc2Pl7hZdx-46" value="modifies()" style="text;strokeColor=none;fillColor=none;align=left;verticalAlign=top;spacingLeft=4;spacingRight=4;overflow=hidden;rotatable=0;points=[[0,0.5],[1,0.5]];portConstraint=eastwest;" vertex="1" parent="ivWQdCyOf3Oc2Pl7hZdx-43">
          <mxGeometry y="88" width="160" height="32" as="geometry" />
        </mxCell>
        <mxCell id="ivWQdCyOf3Oc2Pl7hZdx-47" value="" style="endArrow=none;html=1;rounded=0;exitX=0.5;exitY=0;exitDx=0;exitDy=0;" edge="1" parent="xuX5k-lq0-51uePfPYsa-1" source="ivWQdCyOf3Oc2Pl7hZdx-43">
          <mxGeometry width="50" height="50" relative="1" as="geometry">
            <mxPoint x="250" y="252" as="sourcePoint" />
            <mxPoint x="680" y="190" as="targetPoint" />
          </mxGeometry>
        </mxCell>
        <mxCell id="ivWQdCyOf3Oc2Pl7hZdx-48" value="" style="endArrow=none;html=1;rounded=0;entryX=-0.019;entryY=1.056;entryDx=0;entryDy=0;entryPerimeter=0;exitX=1.006;exitY=0.111;exitDx=0;exitDy=0;exitPerimeter=0;" edge="1" parent="xuX5k-lq0-51uePfPYsa-1" source="ivWQdCyOf3Oc2Pl7hZdx-40" target="ivWQdCyOf3Oc2Pl7hZdx-44">
          <mxGeometry width="50" height="50" relative="1" as="geometry">
            <mxPoint x="260" y="262" as="sourcePoint" />
            <mxPoint x="349.03999999999996" y="261.99800000000005" as="targetPoint" />
          </mxGeometry>
        </mxCell>
        <mxCell id="ivWQdCyOf3Oc2Pl7hZdx-49" value="" style="endArrow=none;html=1;rounded=0;entryX=0;entryY=0.5;entryDx=0;entryDy=0;" edge="1" parent="xuX5k-lq0-51uePfPYsa-1" target="ivWQdCyOf3Oc2Pl7hZdx-40">
          <mxGeometry width="50" height="50" relative="1" as="geometry">
            <mxPoint x="140" y="340" as="sourcePoint" />
            <mxPoint x="390" y="320" as="targetPoint" />
            <Array as="points">
              <mxPoint x="140" y="383" />
            </Array>
          </mxGeometry>
        </mxCell>
        <mxCell id="ivWQdCyOf3Oc2Pl7hZdx-51" value="" style="endArrow=none;html=1;rounded=0;entryX=0.506;entryY=1;entryDx=0;entryDy=0;entryPerimeter=0;" edge="1" parent="xuX5k-lq0-51uePfPYsa-1" target="ivWQdCyOf3Oc2Pl7hZdx-15">
          <mxGeometry width="50" height="50" relative="1" as="geometry">
            <mxPoint x="161" y="230" as="sourcePoint" />
            <mxPoint x="359.03999999999996" y="271.99800000000005" as="targetPoint" />
          </mxGeometry>
        </mxCell>
        <mxCell id="ivWQdCyOf3Oc2Pl7hZdx-52" value="CurrentAccount" style="swimlane;fontStyle=1;align=center;verticalAlign=top;childLayout=stackLayout;horizontal=1;startSize=26;horizontalStack=0;resizeParent=1;resizeParentMax=0;resizeLast=0;collapsible=1;marginBottom=0;" vertex="1" parent="xuX5k-lq0-51uePfPYsa-1">
          <mxGeometry x="80" y="480" width="160" height="110" as="geometry" />
        </mxCell>
        <mxCell id="ivWQdCyOf3Oc2Pl7hZdx-53" value="accountNo&#xa;balance" style="text;strokeColor=none;fillColor=none;align=left;verticalAlign=top;spacingLeft=4;spacingRight=4;overflow=hidden;rotatable=0;points=[[0,0.5],[1,0.5]];portConstraint=eastwest;" vertex="1" parent="ivWQdCyOf3Oc2Pl7hZdx-52">
          <mxGeometry y="26" width="160" height="34" as="geometry" />
        </mxCell>
        <mxCell id="ivWQdCyOf3Oc2Pl7hZdx-54" value="" style="line;strokeWidth=1;fillColor=none;align=left;verticalAlign=middle;spacingTop=-1;spacingLeft=3;spacingRight=3;rotatable=0;labelPosition=right;points=[];portConstraint=eastwest;" vertex="1" parent="ivWQdCyOf3Oc2Pl7hZdx-52">
          <mxGeometry y="60" width="160" height="8" as="geometry" />
        </mxCell>
        <mxCell id="ivWQdCyOf3Oc2Pl7hZdx-55" value="debit()&#xa;credit()" style="text;strokeColor=none;fillColor=none;align=left;verticalAlign=top;spacingLeft=4;spacingRight=4;overflow=hidden;rotatable=0;points=[[0,0.5],[1,0.5]];portConstraint=eastwest;" vertex="1" parent="ivWQdCyOf3Oc2Pl7hZdx-52">
          <mxGeometry y="68" width="160" height="42" as="geometry" />
        </mxCell>
        <mxCell id="ivWQdCyOf3Oc2Pl7hZdx-56" value="SavinsAccount" style="swimlane;fontStyle=1;align=center;verticalAlign=top;childLayout=stackLayout;horizontal=1;startSize=26;horizontalStack=0;resizeParent=1;resizeParentMax=0;resizeLast=0;collapsible=1;marginBottom=0;" vertex="1" parent="xuX5k-lq0-51uePfPYsa-1">
          <mxGeometry x="260" y="480" width="160" height="110" as="geometry" />
        </mxCell>
        <mxCell id="ivWQdCyOf3Oc2Pl7hZdx-57" value="accountNo&#xa;balance&#xa;" style="text;strokeColor=none;fillColor=none;align=left;verticalAlign=top;spacingLeft=4;spacingRight=4;overflow=hidden;rotatable=0;points=[[0,0.5],[1,0.5]];portConstraint=eastwest;" vertex="1" parent="ivWQdCyOf3Oc2Pl7hZdx-56">
          <mxGeometry y="26" width="160" height="34" as="geometry" />
        </mxCell>
        <mxCell id="ivWQdCyOf3Oc2Pl7hZdx-58" value="" style="line;strokeWidth=1;fillColor=none;align=left;verticalAlign=middle;spacingTop=-1;spacingLeft=3;spacingRight=3;rotatable=0;labelPosition=right;points=[];portConstraint=eastwest;" vertex="1" parent="ivWQdCyOf3Oc2Pl7hZdx-56">
          <mxGeometry y="60" width="160" height="8" as="geometry" />
        </mxCell>
        <mxCell id="ivWQdCyOf3Oc2Pl7hZdx-59" value="debit()&#xa;credit()" style="text;strokeColor=none;fillColor=none;align=left;verticalAlign=top;spacingLeft=4;spacingRight=4;overflow=hidden;rotatable=0;points=[[0,0.5],[1,0.5]];portConstraint=eastwest;" vertex="1" parent="ivWQdCyOf3Oc2Pl7hZdx-56">
          <mxGeometry y="68" width="160" height="42" as="geometry" />
        </mxCell>
        <mxCell id="ivWQdCyOf3Oc2Pl7hZdx-61" value="" style="endArrow=block;endSize=16;endFill=0;html=1;rounded=0;exitX=0.619;exitY=-0.018;exitDx=0;exitDy=0;exitPerimeter=0;" edge="1" parent="xuX5k-lq0-51uePfPYsa-1" source="ivWQdCyOf3Oc2Pl7hZdx-56">
          <mxGeometry width="160" relative="1" as="geometry">
            <mxPoint x="280" y="400" as="sourcePoint" />
            <mxPoint x="359" y="440" as="targetPoint" />
          </mxGeometry>
        </mxCell>
        <mxCell id="ivWQdCyOf3Oc2Pl7hZdx-62" value="" style="endArrow=none;html=1;rounded=0;exitX=0.5;exitY=0;exitDx=0;exitDy=0;" edge="1" parent="xuX5k-lq0-51uePfPYsa-1" source="ivWQdCyOf3Oc2Pl7hZdx-52">
          <mxGeometry width="50" height="50" relative="1" as="geometry">
            <mxPoint x="340" y="420" as="sourcePoint" />
            <mxPoint x="360" y="460" as="targetPoint" />
            <Array as="points">
              <mxPoint x="160" y="460" />
            </Array>
          </mxGeometry>
        </mxCell>
        <mxCell id="ivWQdCyOf3Oc2Pl7hZdx-63" value="Withdraw" style="swimlane;fontStyle=1;align=center;verticalAlign=top;childLayout=stackLayout;horizontal=1;startSize=26;horizontalStack=0;resizeParent=1;resizeParentMax=0;resizeLast=0;collapsible=1;marginBottom=0;" vertex="1" parent="xuX5k-lq0-51uePfPYsa-1">
          <mxGeometry x="461" y="480" width="100" height="104" as="geometry" />
        </mxCell>
        <mxCell id="ivWQdCyOf3Oc2Pl7hZdx-64" value="ammount" style="text;strokeColor=none;fillColor=none;align=left;verticalAlign=top;spacingLeft=4;spacingRight=4;overflow=hidden;rotatable=0;points=[[0,0.5],[1,0.5]];portConstraint=eastwest;" vertex="1" parent="ivWQdCyOf3Oc2Pl7hZdx-63">
          <mxGeometry y="26" width="100" height="44" as="geometry" />
        </mxCell>
        <mxCell id="ivWQdCyOf3Oc2Pl7hZdx-65" value="" style="line;strokeWidth=1;fillColor=none;align=left;verticalAlign=middle;spacingTop=-1;spacingLeft=3;spacingRight=3;rotatable=0;labelPosition=right;points=[];portConstraint=eastwest;" vertex="1" parent="ivWQdCyOf3Oc2Pl7hZdx-63">
          <mxGeometry y="70" width="100" height="2" as="geometry" />
        </mxCell>
        <mxCell id="ivWQdCyOf3Oc2Pl7hZdx-66" value="withdraw()" style="text;strokeColor=none;fillColor=none;align=left;verticalAlign=top;spacingLeft=4;spacingRight=4;overflow=hidden;rotatable=0;points=[[0,0.5],[1,0.5]];portConstraint=eastwest;" vertex="1" parent="ivWQdCyOf3Oc2Pl7hZdx-63">
          <mxGeometry y="72" width="100" height="32" as="geometry" />
        </mxCell>
        <mxCell id="ivWQdCyOf3Oc2Pl7hZdx-67" value="Transfer" style="swimlane;fontStyle=1;align=center;verticalAlign=top;childLayout=stackLayout;horizontal=1;startSize=26;horizontalStack=0;resizeParent=1;resizeParentMax=0;resizeLast=0;collapsible=1;marginBottom=0;" vertex="1" parent="xuX5k-lq0-51uePfPYsa-1">
          <mxGeometry x="720" y="480" width="80" height="110" as="geometry" />
        </mxCell>
        <mxCell id="ivWQdCyOf3Oc2Pl7hZdx-68" value="amount&#xa;accountNo" style="text;strokeColor=none;fillColor=none;align=left;verticalAlign=top;spacingLeft=4;spacingRight=4;overflow=hidden;rotatable=0;points=[[0,0.5],[1,0.5]];portConstraint=eastwest;" vertex="1" parent="ivWQdCyOf3Oc2Pl7hZdx-67">
          <mxGeometry y="26" width="80" height="54" as="geometry" />
        </mxCell>
        <mxCell id="ivWQdCyOf3Oc2Pl7hZdx-69" value="" style="line;strokeWidth=1;fillColor=none;align=left;verticalAlign=middle;spacingTop=-1;spacingLeft=3;spacingRight=3;rotatable=0;labelPosition=right;points=[];portConstraint=eastwest;" vertex="1" parent="ivWQdCyOf3Oc2Pl7hZdx-67">
          <mxGeometry y="80" width="80" height="30" as="geometry" />
        </mxCell>
        <mxCell id="ivWQdCyOf3Oc2Pl7hZdx-70" value="Query" style="swimlane;fontStyle=1;align=center;verticalAlign=top;childLayout=stackLayout;horizontal=1;startSize=26;horizontalStack=0;resizeParent=1;resizeParentMax=0;resizeLast=0;collapsible=1;marginBottom=0;" vertex="1" parent="xuX5k-lq0-51uePfPYsa-1">
          <mxGeometry x="590" y="480" width="100" height="104" as="geometry" />
        </mxCell>
        <mxCell id="ivWQdCyOf3Oc2Pl7hZdx-71" value="queryID&#xa;type" style="text;strokeColor=none;fillColor=none;align=left;verticalAlign=top;spacingLeft=4;spacingRight=4;overflow=hidden;rotatable=0;points=[[0,0.5],[1,0.5]];portConstraint=eastwest;" vertex="1" parent="ivWQdCyOf3Oc2Pl7hZdx-70">
          <mxGeometry y="26" width="100" height="44" as="geometry" />
        </mxCell>
        <mxCell id="ivWQdCyOf3Oc2Pl7hZdx-72" value="" style="line;strokeWidth=1;fillColor=none;align=left;verticalAlign=middle;spacingTop=-1;spacingLeft=3;spacingRight=3;rotatable=0;labelPosition=right;points=[];portConstraint=eastwest;" vertex="1" parent="ivWQdCyOf3Oc2Pl7hZdx-70">
          <mxGeometry y="70" width="100" height="2" as="geometry" />
        </mxCell>
        <mxCell id="ivWQdCyOf3Oc2Pl7hZdx-73" value="processing()" style="text;strokeColor=none;fillColor=none;align=left;verticalAlign=top;spacingLeft=4;spacingRight=4;overflow=hidden;rotatable=0;points=[[0,0.5],[1,0.5]];portConstraint=eastwest;" vertex="1" parent="ivWQdCyOf3Oc2Pl7hZdx-70">
          <mxGeometry y="72" width="100" height="32" as="geometry" />
        </mxCell>
        <mxCell id="ivWQdCyOf3Oc2Pl7hZdx-74" value="PinValidation" style="swimlane;fontStyle=1;align=center;verticalAlign=top;childLayout=stackLayout;horizontal=1;startSize=26;horizontalStack=0;resizeParent=1;resizeParentMax=0;resizeLast=0;collapsible=1;marginBottom=0;" vertex="1" parent="xuX5k-lq0-51uePfPYsa-1">
          <mxGeometry x="461" y="620" width="100" height="104" as="geometry" />
        </mxCell>
        <mxCell id="ivWQdCyOf3Oc2Pl7hZdx-75" value="oldPIN&#xa;newPIN" style="text;strokeColor=none;fillColor=none;align=left;verticalAlign=top;spacingLeft=4;spacingRight=4;overflow=hidden;rotatable=0;points=[[0,0.5],[1,0.5]];portConstraint=eastwest;" vertex="1" parent="ivWQdCyOf3Oc2Pl7hZdx-74">
          <mxGeometry y="26" width="100" height="44" as="geometry" />
        </mxCell>
        <mxCell id="ivWQdCyOf3Oc2Pl7hZdx-76" value="" style="line;strokeWidth=1;fillColor=none;align=left;verticalAlign=middle;spacingTop=-1;spacingLeft=3;spacingRight=3;rotatable=0;labelPosition=right;points=[];portConstraint=eastwest;" vertex="1" parent="ivWQdCyOf3Oc2Pl7hZdx-74">
          <mxGeometry y="70" width="100" height="2" as="geometry" />
        </mxCell>
        <mxCell id="ivWQdCyOf3Oc2Pl7hZdx-77" value="pinChange()" style="text;strokeColor=none;fillColor=none;align=left;verticalAlign=top;spacingLeft=4;spacingRight=4;overflow=hidden;rotatable=0;points=[[0,0.5],[1,0.5]];portConstraint=eastwest;" vertex="1" parent="ivWQdCyOf3Oc2Pl7hZdx-74">
          <mxGeometry y="72" width="100" height="32" as="geometry" />
        </mxCell>
        <mxCell id="ivWQdCyOf3Oc2Pl7hZdx-78" value="" style="endArrow=block;endSize=16;endFill=0;html=1;rounded=0;exitX=0.5;exitY=0;exitDx=0;exitDy=0;" edge="1" parent="xuX5k-lq0-51uePfPYsa-1" source="ivWQdCyOf3Oc2Pl7hZdx-70">
          <mxGeometry width="160" relative="1" as="geometry">
            <mxPoint x="640" y="470" as="sourcePoint" />
            <mxPoint x="640" y="400" as="targetPoint" />
          </mxGeometry>
        </mxCell>
        <mxCell id="ivWQdCyOf3Oc2Pl7hZdx-79" value="" style="endArrow=none;html=1;rounded=0;exitX=0.5;exitY=0;exitDx=0;exitDy=0;" edge="1" parent="xuX5k-lq0-51uePfPYsa-1">
          <mxGeometry width="50" height="50" relative="1" as="geometry">
            <mxPoint x="510" y="480" as="sourcePoint" />
            <mxPoint x="640" y="460" as="targetPoint" />
            <Array as="points">
              <mxPoint x="510" y="460" />
            </Array>
          </mxGeometry>
        </mxCell>
        <mxCell id="ivWQdCyOf3Oc2Pl7hZdx-80" value="" style="endArrow=none;html=1;rounded=0;entryX=0.5;entryY=0;entryDx=0;entryDy=0;" edge="1" parent="xuX5k-lq0-51uePfPYsa-1" target="ivWQdCyOf3Oc2Pl7hZdx-67">
          <mxGeometry width="50" height="50" relative="1" as="geometry">
            <mxPoint x="640" y="460" as="sourcePoint" />
            <mxPoint x="790" y="450" as="targetPoint" />
            <Array as="points">
              <mxPoint x="760" y="460" />
            </Array>
          </mxGeometry>
        </mxCell>
        <mxCell id="ivWQdCyOf3Oc2Pl7hZdx-81" value="" style="endArrow=none;html=1;rounded=0;exitX=0.5;exitY=0;exitDx=0;exitDy=0;entryX=0.5;entryY=1.063;entryDx=0;entryDy=0;entryPerimeter=0;" edge="1" parent="xuX5k-lq0-51uePfPYsa-1" source="ivWQdCyOf3Oc2Pl7hZdx-74" target="ivWQdCyOf3Oc2Pl7hZdx-66">
          <mxGeometry width="50" height="50" relative="1" as="geometry">
            <mxPoint x="300" y="670" as="sourcePoint" />
            <mxPoint x="511" y="590" as="targetPoint" />
          </mxGeometry>
        </mxCell>
        <mxCell id="ivWQdCyOf3Oc2Pl7hZdx-82" value="Maintains" style="text;html=1;align=center;verticalAlign=middle;resizable=0;points=[];autosize=1;strokeColor=none;fillColor=none;" vertex="1" parent="xuX5k-lq0-51uePfPYsa-1">
          <mxGeometry x="355" y="80" width="70" height="20" as="geometry" />
        </mxCell>
        <mxCell id="ivWQdCyOf3Oc2Pl7hZdx-84" value="1" style="text;html=1;align=center;verticalAlign=middle;resizable=0;points=[];autosize=1;strokeColor=none;fillColor=none;" vertex="1" parent="xuX5k-lq0-51uePfPYsa-1">
          <mxGeometry x="240" y="110" width="20" height="20" as="geometry" />
        </mxCell>
        <mxCell id="ivWQdCyOf3Oc2Pl7hZdx-85" value="1..*" style="text;html=1;align=center;verticalAlign=middle;resizable=0;points=[];autosize=1;strokeColor=none;fillColor=none;" vertex="1" parent="xuX5k-lq0-51uePfPYsa-1">
          <mxGeometry x="565" y="110" width="30" height="20" as="geometry" />
        </mxCell>
        <mxCell id="ivWQdCyOf3Oc2Pl7hZdx-86" value="1" style="text;html=1;align=center;verticalAlign=middle;resizable=0;points=[];autosize=1;strokeColor=none;fillColor=none;" vertex="1" parent="xuX5k-lq0-51uePfPYsa-1">
          <mxGeometry x="680" y="190" width="20" height="20" as="geometry" />
        </mxCell>
        <mxCell id="ivWQdCyOf3Oc2Pl7hZdx-87" value="*" style="text;html=1;align=center;verticalAlign=middle;resizable=0;points=[];autosize=1;strokeColor=none;fillColor=none;" vertex="1" parent="xuX5k-lq0-51uePfPYsa-1">
          <mxGeometry x="680" y="260" width="20" height="20" as="geometry" />
        </mxCell>
        <mxCell id="ivWQdCyOf3Oc2Pl7hZdx-88" value="Identifies" style="text;html=1;align=center;verticalAlign=middle;resizable=0;points=[];autosize=1;strokeColor=none;fillColor=none;" vertex="1" parent="xuX5k-lq0-51uePfPYsa-1">
          <mxGeometry x="680" y="230" width="60" height="20" as="geometry" />
        </mxCell>
        <mxCell id="ivWQdCyOf3Oc2Pl7hZdx-89" value="Modifies" style="text;html=1;align=center;verticalAlign=middle;resizable=0;points=[];autosize=1;strokeColor=none;fillColor=none;" vertex="1" parent="xuX5k-lq0-51uePfPYsa-1">
          <mxGeometry x="510" y="340" width="60" height="20" as="geometry" />
        </mxCell>
        <mxCell id="ivWQdCyOf3Oc2Pl7hZdx-91" value="1" style="text;html=1;align=center;verticalAlign=middle;resizable=0;points=[];autosize=1;strokeColor=none;fillColor=none;" vertex="1" parent="xuX5k-lq0-51uePfPYsa-1">
          <mxGeometry x="490" y="370" width="20" height="20" as="geometry" />
        </mxCell>
        <mxCell id="ivWQdCyOf3Oc2Pl7hZdx-92" value="*" style="text;html=1;align=center;verticalAlign=middle;resizable=0;points=[];autosize=1;strokeColor=none;fillColor=none;" vertex="1" parent="xuX5k-lq0-51uePfPYsa-1">
          <mxGeometry x="580" y="370" width="20" height="20" as="geometry" />
        </mxCell>
        <mxCell id="ivWQdCyOf3Oc2Pl7hZdx-93" value="" style="endArrow=none;html=1;rounded=0;entryX=0.444;entryY=0.969;entryDx=0;entryDy=0;entryPerimeter=0;" edge="1" parent="xuX5k-lq0-51uePfPYsa-1" target="ivWQdCyOf3Oc2Pl7hZdx-31">
          <mxGeometry width="50" height="50" relative="1" as="geometry">
            <mxPoint x="401" y="330" as="sourcePoint" />
            <mxPoint x="350" y="280" as="targetPoint" />
          </mxGeometry>
        </mxCell>
        <mxCell id="ivWQdCyOf3Oc2Pl7hZdx-94" value="1..*" style="text;html=1;align=center;verticalAlign=middle;resizable=0;points=[];autosize=1;strokeColor=none;fillColor=none;" vertex="1" parent="xuX5k-lq0-51uePfPYsa-1">
          <mxGeometry x="410" y="280" width="30" height="20" as="geometry" />
        </mxCell>
        <mxCell id="ivWQdCyOf3Oc2Pl7hZdx-96" value="1..*" style="text;html=1;align=center;verticalAlign=middle;resizable=0;points=[];autosize=1;strokeColor=none;fillColor=none;" vertex="1" parent="xuX5k-lq0-51uePfPYsa-1">
          <mxGeometry x="410" y="310" width="30" height="20" as="geometry" />
        </mxCell>
        <mxCell id="ivWQdCyOf3Oc2Pl7hZdx-97" value="1..*" style="text;html=1;align=center;verticalAlign=middle;resizable=0;points=[];autosize=1;strokeColor=none;fillColor=none;" vertex="1" parent="xuX5k-lq0-51uePfPYsa-1">
          <mxGeometry x="285" y="390" width="30" height="20" as="geometry" />
        </mxCell>
        <mxCell id="ivWQdCyOf3Oc2Pl7hZdx-98" value="1..*" style="text;html=1;align=center;verticalAlign=middle;resizable=0;points=[];autosize=1;strokeColor=none;fillColor=none;" vertex="1" parent="xuX5k-lq0-51uePfPYsa-1">
          <mxGeometry x="295" y="170" width="30" height="20" as="geometry" />
        </mxCell>
        <mxCell id="ivWQdCyOf3Oc2Pl7hZdx-99" value="1..*" style="text;html=1;align=center;verticalAlign=middle;resizable=0;points=[];autosize=1;strokeColor=none;fillColor=none;" vertex="1" parent="xuX5k-lq0-51uePfPYsa-1">
          <mxGeometry x="295" y="250" width="30" height="20" as="geometry" />
        </mxCell>
        <mxCell id="ivWQdCyOf3Oc2Pl7hZdx-100" value="1" style="text;html=1;align=center;verticalAlign=middle;resizable=0;points=[];autosize=1;strokeColor=none;fillColor=none;" vertex="1" parent="xuX5k-lq0-51uePfPYsa-1">
          <mxGeometry x="240" y="180" width="20" height="20" as="geometry" />
        </mxCell>
        <mxCell id="ivWQdCyOf3Oc2Pl7hZdx-101" value="Has" style="text;html=1;align=center;verticalAlign=middle;resizable=0;points=[];autosize=1;strokeColor=none;fillColor=none;" vertex="1" parent="xuX5k-lq0-51uePfPYsa-1">
          <mxGeometry x="260" y="140" width="40" height="20" as="geometry" />
        </mxCell>
        <mxCell id="ivWQdCyOf3Oc2Pl7hZdx-102" value="Owns" style="text;html=1;align=center;verticalAlign=middle;resizable=0;points=[];autosize=1;strokeColor=none;fillColor=none;" vertex="1" parent="xuX5k-lq0-51uePfPYsa-1">
          <mxGeometry x="245" y="240" width="50" height="20" as="geometry" />
        </mxCell>
        <mxCell id="ivWQdCyOf3Oc2Pl7hZdx-103" value="0..1" style="text;html=1;align=center;verticalAlign=middle;resizable=0;points=[];autosize=1;strokeColor=none;fillColor=none;" vertex="1" parent="xuX5k-lq0-51uePfPYsa-1">
          <mxGeometry x="240" y="220" width="40" height="20" as="geometry" />
        </mxCell>
        <mxCell id="ivWQdCyOf3Oc2Pl7hZdx-104" value="1..*" style="text;html=1;align=center;verticalAlign=middle;resizable=0;points=[];autosize=1;strokeColor=none;fillColor=none;" vertex="1" parent="xuX5k-lq0-51uePfPYsa-1">
          <mxGeometry x="115" y="210" width="30" height="20" as="geometry" />
        </mxCell>
        <mxCell id="ivWQdCyOf3Oc2Pl7hZdx-105" value="1" style="text;html=1;align=center;verticalAlign=middle;resizable=0;points=[];autosize=1;strokeColor=none;fillColor=none;" vertex="1" parent="xuX5k-lq0-51uePfPYsa-1">
          <mxGeometry x="130" y="190" width="20" height="20" as="geometry" />
        </mxCell>
        <mxCell id="ivWQdCyOf3Oc2Pl7hZdx-106" value="*" style="text;html=1;align=center;verticalAlign=middle;resizable=0;points=[];autosize=1;strokeColor=none;fillColor=none;" vertex="1" parent="xuX5k-lq0-51uePfPYsa-1">
          <mxGeometry x="150" y="340" width="20" height="20" as="geometry" />
        </mxCell>
      </root>
    </mxGraphModel>
  </diagram>
</mxfile>
